<svg width="32" height="32" viewBox="0 0 32 32" fill="none" xmlns="http://www.w3.org/2000/svg">
<path d="M13.8921 24.123H17.2491V15.999H19.4881L19.7851 13.2H17.2491L17.2521 11.798C17.2521 11.068 17.3221 10.677 18.3691 10.677H19.7691V7.87695H17.5291C14.8391 7.87695 13.8921 9.23495 13.8921 11.519V13.2H12.2151V16H13.8921V24.123V24.123Z" fill="white"/>
<path d="M16 1C24.271 1 31 7.729 31 16C31 24.271 24.271 31 16 31C7.729 31 1 24.271 1 16C1 7.729 7.729 1 16 1ZM16 0C7.163 0 0 7.163 0 16C0 24.837 7.163 32 16 32C24.837 32 32 24.837 32 16C32 7.163 24.837 0 16 0Z" fill="white"/>
</svg>
