<svg width="32" height="32" viewBox="0 0 32 32" fill="none" xmlns="http://www.w3.org/2000/svg">
<path d="M18.5199 24.4929H13.9919C13.9919 24.4929 13.9979 23.1489 13.9919 22.2279C10.8929 22.8949 10.0279 20.5289 10.0279 20.5289C9.46193 19.3969 8.89593 18.8299 8.89593 18.8299C7.76393 18.1569 8.89593 18.2639 8.89593 18.2639C10.0279 18.2639 10.5949 19.3959 10.5949 19.3959C11.5889 21.0829 13.3569 20.8119 13.9919 20.5279C13.9919 19.9619 14.2399 19.1059 14.5579 18.8289C12.0849 18.5499 10.0259 17.1299 10.0259 14.2989C10.0259 11.4679 10.5939 10.9019 11.1609 10.3349C11.0469 10.0559 10.5729 9.02391 11.1789 7.50391C11.1789 7.50391 12.2919 7.50391 13.4239 9.20291C13.9849 8.64191 15.6889 8.63691 16.2559 8.63691C16.8209 8.63691 18.5249 8.64191 19.0859 9.20291C20.2179 7.50391 21.3339 7.50391 21.3339 7.50391C21.9389 9.02391 21.4659 10.0559 21.3509 10.3349C21.9169 10.9009 22.4829 11.4669 22.4829 14.2989C22.4829 17.1309 20.4269 18.5499 17.9529 18.8289C18.2719 19.1049 18.5189 20.0799 18.5189 20.5279L18.5199 24.4929V24.4929Z" fill="white"/>
<path d="M16 1C24.271 1 31 7.729 31 16C31 24.271 24.271 31 16 31C7.729 31 1 24.271 1 16C1 7.729 7.729 1 16 1ZM16 0C7.163 0 0 7.164 0 16C0 24.836 7.163 32 16 32C24.837 32 32 24.837 32 16C32 7.163 24.836 0 16 0Z" fill="white"/>
</svg>
