<svg width="32" height="32" viewBox="0 0 32 32" fill="none" xmlns="http://www.w3.org/2000/svg">
<path d="M21.874 8.16676H10.126C9.86759 8.16257 9.61097 8.21038 9.3714 8.30734C9.13183 8.40431 8.9142 8.54845 8.73145 8.7312C8.54869 8.91395 8.40455 9.13158 8.30759 9.37115C8.21062 9.61072 8.16281 9.86734 8.167 10.1258V21.8748C8.167 22.9798 9.019 23.8338 10.126 23.8338H21.875C22.1334 23.8378 22.3899 23.7899 22.6294 23.6929C22.869 23.5959 23.0865 23.4517 23.2692 23.269C23.452 23.0863 23.5961 22.8687 23.6931 22.6292C23.7901 22.3897 23.8381 22.1331 23.834 21.8748V10.1258C23.8379 9.86733 23.7899 9.61075 23.6928 9.37124C23.5956 9.13173 23.4514 8.91417 23.2686 8.73146C23.0858 8.54875 22.8682 8.40462 22.6286 8.30761C22.389 8.21061 22.1324 8.16271 21.874 8.16676V8.16676ZM16.012 12.9228C17.749 12.9228 19.157 14.2868 19.157 15.9708C19.157 17.6528 17.749 19.0188 16.012 19.0188C14.276 19.0188 12.868 17.6538 12.868 15.9708C12.868 14.2868 14.276 12.9228 16.012 12.9228V12.9228ZM21.874 21.3848C21.874 21.7288 21.727 21.8748 21.384 21.8748H10.614C10.271 21.8748 10.124 21.7288 10.124 21.3848V14.5308L11.344 14.7958C11.21 15.2312 11.1419 15.6842 11.142 16.1398C11.142 18.7438 13.323 20.8558 16.01 20.8558C18.698 20.8558 20.878 18.7438 20.878 16.1398C20.878 15.6728 20.807 15.2218 20.676 14.7958L21.873 14.5308V21.3848H21.874ZM21.874 12.5738C21.874 12.7037 21.8224 12.8283 21.7305 12.9202C21.6386 13.0121 21.514 13.0638 21.384 13.0638H19.425C19.295 13.0638 19.1704 13.0121 19.0785 12.9202C18.9866 12.8283 18.935 12.7037 18.935 12.5738V10.6148C18.935 10.4848 18.9866 10.3602 19.0785 10.2683C19.1704 10.1764 19.295 10.1248 19.425 10.1248H21.384C21.514 10.1248 21.6386 10.1764 21.7305 10.2683C21.8224 10.3602 21.874 10.4848 21.874 10.6148V12.5738Z" fill="white"/>
<path d="M16 1C24.271 1 31 7.729 31 16C31 24.271 24.271 31 16 31C7.729 31 1 24.271 1 16C1 7.729 7.729 1 16 1ZM16 0C7.163 0 0 7.164 0 16C0 24.836 7.163 32 16 32C24.837 32 32 24.837 32 16C32 7.163 24.837 0 16 0Z" fill="white"/>
</svg>
