<?xml version="1.0" encoding="UTF-8"?>
<svg xmlns="http://www.w3.org/2000/svg" xmlns:xlink="http://www.w3.org/1999/xlink" viewBox="0 0 32 32" width="32px" height="32px">
<g id="surface98157603">
<path style="fill-rule:nonzero;fill:rgb(100%,100%,100%);fill-opacity:1;stroke-width:10;stroke-linecap:butt;stroke-linejoin:round;stroke:rgb(0%,0%,0%);stroke-opacity:1;stroke-miterlimit:10;" d="M 142.96718 29.232784 C 149.83257 27.744172 156.34247 25.300182 162.208045 21.811942 C 163.43004 21.078745 165.007524 21.189836 166.118429 22.056341 C 167.229333 22.945065 167.695913 24.433677 167.273769 25.78898 C 166.007338 29.766018 163.918838 33.276476 161.474848 36.542535 C 163.31895 35.920428 165.385232 35.831556 167.162679 35.053923 C 168.562419 34.38738 170.228775 34.74287 171.228589 35.942647 C 172.250621 37.120205 172.339494 38.830998 171.472988 40.097429 C 167.051589 46.71842 161.430412 52.361814 155.120475 57.183139 C 155.142693 58.160735 155.231565 59.116113 155.231565 60.093709 C 155.231565 83.33383 146.433202 108.218089 129.547455 127.3923 C 112.639489 146.544293 87.466394 159.964018 55.361256 159.964018 C 35.564939 159.964018 17.123925 154.120661 1.615699 144.166957 C 0.238178 143.300452 -0.383929 141.611877 0.171524 140.078829 C 0.704758 138.545781 2.260024 137.590403 3.859726 137.812584 C 6.37037 138.101419 8.881014 138.234727 11.502749 138.234727 C 23.611607 138.234727 34.831742 134.857578 44.496611 129.103093 C 32.365534 125.77038 22.545139 116.660963 18.70141 104.707631 C 18.34592 103.552291 18.612537 102.308078 19.412389 101.419354 C 20.190022 100.508413 21.389798 100.086269 22.567357 100.30845 C 22.678448 100.330668 22.789538 100.286232 22.900628 100.30845 C 13.213542 93.554151 6.659206 82.556197 6.659206 69.869668 L 6.659206 69.447524 C 6.681424 68.247748 7.30353 67.136843 8.34778 66.514737 C 9.369812 65.89263 10.658462 65.870412 11.72493 66.425864 C 12.546999 66.914662 13.524595 67.114625 14.413319 67.514551 C 9.836392 61.293486 6.881386 53.739336 6.881386 45.474207 C 6.881386 38.653253 8.725488 32.29888 11.924893 26.766576 C 12.502563 25.766762 13.524595 25.122437 14.657718 25.033565 C 15.813058 24.944693 16.923963 25.433491 17.634941 26.344432 C 32.898768 45.074281 55.405692 57.338666 80.845404 59.760438 C 80.712095 58.560661 80.401042 57.360884 80.401042 56.116671 C 80.401042 35.542721 97.131263 18.8125 117.705213 18.8125 C 127.525609 18.8125 136.301754 23.011719 142.96718 29.232784 Z M 87.28865 56.116671 C 87.28865 58.516225 87.621921 60.871342 88.155155 63.093151 C 88.399554 64.159619 88.132937 65.248306 87.421958 66.092593 C 86.733198 66.914662 85.666729 67.359024 84.600261 67.29237 C 57.40532 65.914848 33.320912 53.383846 16.124111 34.498471 C 14.791026 37.942275 13.768994 41.541605 13.768994 45.474207 C 13.768994 56.072235 19.145771 65.381614 27.29981 70.847264 C 28.632895 71.669333 29.232784 73.313472 28.743986 74.802084 C 28.255188 76.290696 26.83323 77.268292 25.255746 77.179419 C 21.412017 77.068329 17.87934 76.112951 14.413319 74.935392 C 16.524037 87.310868 25.700108 97.28679 37.942275 99.752998 C 39.475323 100.086269 40.586227 101.441572 40.652881 103.019057 C 40.697318 104.574323 39.675285 105.974062 38.164455 106.418424 C 35.031705 107.28493 31.676774 107.707073 28.277406 107.707073 C 28.077443 107.707073 27.921917 107.707073 27.744172 107.707073 C 32.809896 117.038671 42.29702 123.637443 53.650463 123.837406 C 55.072421 123.881842 56.338852 124.815002 56.805432 126.192523 C 57.249794 127.570045 56.805432 129.058657 55.694528 129.969598 C 44.874318 138.456908 31.499029 143.589287 16.990617 144.700191 C 28.69955 150.032533 41.652695 153.076411 55.361256 153.076411 C 85.577857 153.076411 108.662451 140.589845 124.37064 122.770938 C 140.101047 104.929812 148.343958 81.600819 148.343958 60.093709 C 148.343958 58.671751 148.299522 57.29423 148.232867 55.89449 C 148.166213 54.716932 148.677229 53.583809 149.632607 52.895048 C 153.143065 50.339968 156.364688 47.473835 159.319694 44.296648 C 156.031417 45.163153 152.96532 46.562893 149.521516 46.985037 C 147.832942 47.362744 146.099931 46.407366 145.544479 44.763228 C 144.966808 43.096871 145.700005 41.297206 147.27749 40.519573 C 150.743511 38.453291 153.698517 35.698248 156.098071 32.454407 C 151.943288 34.142981 147.677415 35.453849 143.189361 36.342572 C 142.011802 36.586971 140.789808 36.231482 139.967738 35.364976 C 134.413216 29.432747 126.481358 25.700108 117.705213 25.700108 C 100.863902 25.700108 87.28865 39.27536 87.28865 56.116671 Z M 87.28865 56.116671 " transform="matrix(0.175814,0,0,0.175814,0.88,0.88)"/>
<path style=" stroke:none;fill-rule:nonzero;fill:rgb(100%,100%,100%);fill-opacity:1;" d="M 21.574219 4.1875 C 17.957031 4.1875 15.015625 7.128906 15.015625 10.746094 C 15.015625 10.964844 15.070312 11.175781 15.09375 11.386719 C 10.621094 10.960938 6.664062 8.804688 3.980469 5.511719 C 3.855469 5.351562 3.660156 5.265625 3.457031 5.28125 C 3.257812 5.296875 3.078125 5.410156 2.976562 5.585938 C 2.414062 6.558594 2.089844 7.675781 2.089844 8.875 C 2.089844 10.328125 2.609375 11.65625 3.414062 12.75 C 3.257812 12.679688 3.085938 12.644531 2.941406 12.558594 C 2.753906 12.460938 2.527344 12.464844 2.347656 12.574219 C 2.164062 12.683594 2.054688 12.878906 2.050781 13.089844 L 2.050781 13.164062 C 2.050781 15.394531 3.203125 17.328125 4.90625 18.515625 C 4.886719 18.511719 4.867188 18.519531 4.847656 18.515625 C 4.640625 18.476562 4.429688 18.550781 4.292969 18.710938 C 4.152344 18.867188 4.105469 19.085938 4.167969 19.289062 C 4.84375 21.390625 6.570312 22.992188 8.703125 23.578125 C 7.003906 24.589844 5.03125 25.183594 2.902344 25.183594 C 2.441406 25.183594 2 25.160156 1.558594 25.109375 C 1.277344 25.070312 1.003906 25.238281 0.910156 25.507812 C 0.8125 25.777344 0.921875 26.074219 1.164062 26.226562 C 3.890625 27.976562 7.132812 29.003906 10.613281 29.003906 C 16.257812 29.003906 20.683594 26.644531 23.65625 23.277344 C 26.625 19.90625 28.171875 15.53125 28.171875 11.445312 C 28.171875 11.273438 28.15625 11.105469 28.152344 10.933594 C 29.261719 10.085938 30.25 9.09375 31.027344 7.929688 C 31.179688 7.707031 31.164062 7.40625 30.984375 7.199219 C 30.808594 6.988281 30.515625 6.925781 30.269531 7.042969 C 29.957031 7.179688 29.59375 7.195312 29.269531 7.304688 C 29.699219 6.730469 30.066406 6.113281 30.289062 5.414062 C 30.363281 5.175781 30.28125 4.914062 30.085938 4.757812 C 29.890625 4.605469 29.613281 4.585938 29.398438 4.714844 C 28.367188 5.328125 27.222656 5.757812 26.015625 6.019531 C 24.84375 4.925781 23.300781 4.1875 21.574219 4.1875 Z M 21.574219 5.398438 C 23.117188 5.398438 24.511719 6.054688 25.488281 7.097656 C 25.632812 7.25 25.847656 7.3125 26.054688 7.269531 C 26.84375 7.113281 27.59375 6.882812 28.324219 6.585938 C 27.902344 7.15625 27.382812 7.640625 26.773438 8.003906 C 26.496094 8.140625 26.367188 8.457031 26.46875 8.75 C 26.566406 9.039062 26.871094 9.207031 27.167969 9.140625 C 27.773438 9.066406 28.3125 8.820312 28.890625 8.667969 C 28.371094 9.226562 27.804688 9.730469 27.1875 10.179688 C 27.019531 10.300781 26.929688 10.5 26.941406 10.707031 C 26.953125 10.953125 26.960938 11.195312 26.960938 11.445312 C 26.960938 15.226562 25.511719 19.328125 22.746094 22.464844 C 19.984375 25.597656 15.925781 27.792969 10.613281 27.792969 C 8.203125 27.792969 5.925781 27.257812 3.867188 26.320312 C 6.417969 26.125 8.769531 25.222656 10.671875 23.730469 C 10.867188 23.570312 10.945312 23.308594 10.867188 23.066406 C 10.785156 22.824219 10.5625 22.660156 10.3125 22.652344 C 8.316406 22.617188 6.648438 21.457031 5.757812 19.816406 C 5.789062 19.816406 5.816406 19.816406 5.851562 19.816406 C 6.449219 19.816406 7.039062 19.742188 7.589844 19.589844 C 7.855469 19.511719 8.035156 19.265625 8.027344 18.992188 C 8.015625 18.714844 7.820312 18.476562 7.550781 18.417969 C 5.398438 17.984375 3.785156 16.230469 3.414062 14.054688 C 4.023438 14.261719 4.644531 14.429688 5.320312 14.449219 C 5.597656 14.464844 5.847656 14.292969 5.933594 14.03125 C 6.019531 13.769531 5.914062 13.480469 5.679688 13.335938 C 4.246094 12.375 3.300781 10.738281 3.300781 8.875 C 3.300781 8.183594 3.480469 7.550781 3.714844 6.945312 C 6.738281 10.265625 10.972656 12.46875 15.753906 12.710938 C 15.941406 12.722656 16.128906 12.644531 16.25 12.5 C 16.375 12.351562 16.421875 12.160156 16.378906 11.972656 C 16.285156 11.582031 16.226562 11.167969 16.226562 10.746094 C 16.226562 7.785156 18.613281 5.398438 21.574219 5.398438 Z M 21.574219 5.398438 "/>
</g>
</svg>
