<?xml version="1.0" encoding="UTF-8"?>
<svg xmlns="http://www.w3.org/2000/svg" xmlns:xlink="http://www.w3.org/1999/xlink" viewBox="0 0 32 32" width="32px" height="32px">
<g id="surface98143346">
<path style="fill-rule:nonzero;fill:rgb(100%,100%,100%);fill-opacity:1;stroke-width:10;stroke-linecap:butt;stroke-linejoin:round;stroke:rgb(14.117648%,12.54902%,12.54902%);stroke-opacity:1;stroke-miterlimit:10;" d="M 136.701679 35.32054 C 150.232495 48.851356 157.675555 66.82579 157.653337 85.955564 C 157.631119 125.41489 125.525981 157.520028 86.066655 157.520028 L 86.044437 157.520028 C 74.068887 157.49781 62.2933 154.520586 51.82858 148.810538 L 14.324446 157.675555 L 24.055969 121.660033 C 17.790468 110.817606 14.479973 98.508785 14.479973 85.88891 C 14.502191 46.429584 46.629547 14.324446 86.088873 14.324446 C 105.240866 14.346664 123.193081 21.789724 136.701679 35.32054 Z M 28.81064 85.88891 C 28.81064 95.953704 31.454593 105.840754 36.453663 114.505809 L 39.430887 119.660405 L 37.87562 125.392672 L 34.431817 138.190291 L 48.540303 134.857578 L 53.872644 133.591147 L 58.716188 136.212881 C 67.047971 140.76759 76.512877 143.167143 86.066655 143.189361 C 117.638559 143.189361 143.300452 117.505251 143.32267 85.933346 C 143.32267 70.647301 137.39044 56.272198 126.570231 45.451989 C 115.77224 34.631779 101.374918 28.677332 86.066655 28.677332 C 54.516969 28.677332 28.832858 54.339224 28.81064 85.88891 Z M 64.159619 52.895048 C 65.448268 52.939485 66.848008 53.006139 68.203312 55.983363 C 69.780796 59.538257 73.269036 68.358838 73.713398 69.26978 C 74.157759 70.158503 74.468813 71.202753 73.868924 72.40253 C 73.269036 73.580089 72.957983 74.335504 72.069259 75.379754 C 71.180535 76.424004 70.202939 77.712654 69.403088 78.512505 C 68.514365 79.401228 67.558987 80.378824 68.603237 82.156271 C 69.647487 83.955936 73.246818 89.799294 78.556941 94.531747 C 85.400112 100.619503 91.154597 102.530259 92.932044 103.418982 C 94.73171 104.329924 95.77596 104.152179 96.82021 102.97462 C 97.86446 101.774844 101.286046 97.75337 102.485823 95.975922 C 103.663381 94.176257 104.863158 94.465092 106.507297 95.064981 C 108.151435 95.664869 116.949798 99.975178 118.727245 100.88612 C 120.526911 101.774844 121.704469 102.219205 122.148831 102.97462 C 122.593193 103.707817 122.593193 107.307148 121.104581 111.484148 C 119.615969 115.661149 112.306218 119.682623 109.017941 119.971458 C 105.751882 120.282512 102.685785 121.437852 87.577485 115.483404 C 69.38087 108.32918 57.894118 89.688203 57.005395 88.510645 C 56.116671 87.310868 49.695644 78.80134 49.695644 70.002977 C 49.695644 61.204614 54.339224 56.872086 55.983363 55.094639 C 57.627501 53.294974 59.560475 52.850612 60.738034 52.850612 C 61.93781 52.850612 63.115369 52.850612 64.159619 52.895048 Z M 64.159619 52.895048 " transform="matrix(0.175814,0,0,0.175814,0.88,0.88)"/>
<path style=" stroke:none;fill-rule:nonzero;fill:rgb(100%,100%,100%);fill-opacity:1;" d="M 16.015625 3.398438 C 9.078125 3.398438 3.429688 9.042969 3.425781 15.980469 C 3.425781 18.199219 4.007812 20.363281 5.109375 22.269531 L 3.398438 28.601562 L 9.992188 27.042969 C 11.832031 28.046875 13.902344 28.570312 16.007812 28.574219 L 16.011719 28.574219 C 22.949219 28.574219 28.59375 22.929688 28.597656 15.992188 C 28.601562 12.628906 27.292969 9.46875 24.914062 7.089844 C 22.539062 4.710938 19.382812 3.402344 16.015625 3.398438 Z M 16.011719 5.921875 C 18.703125 5.921875 21.234375 6.96875 23.132812 8.871094 C 25.035156 10.773438 26.078125 13.300781 26.078125 15.988281 C 26.074219 21.539062 21.5625 26.054688 16.011719 26.054688 C 14.332031 26.050781 12.667969 25.628906 11.203125 24.828125 L 10.351562 24.367188 L 9.414062 24.589844 L 6.933594 25.175781 L 7.539062 22.925781 L 7.8125 21.917969 L 7.289062 21.011719 C 6.410156 19.488281 5.945312 17.75 5.945312 15.980469 C 5.949219 10.433594 10.464844 5.921875 16.011719 5.921875 Z M 11.558594 10.171875 C 11.351562 10.171875 11.011719 10.25 10.722656 10.566406 C 10.433594 10.878906 9.617188 11.640625 9.617188 13.1875 C 9.617188 14.734375 10.746094 16.230469 10.902344 16.441406 C 11.058594 16.648438 13.078125 19.925781 16.277344 21.183594 C 18.933594 22.230469 19.472656 22.027344 20.046875 21.972656 C 20.625 21.921875 21.910156 21.214844 22.171875 20.480469 C 22.433594 19.746094 22.433594 19.113281 22.355469 18.984375 C 22.277344 18.851562 22.070312 18.773438 21.753906 18.617188 C 21.441406 18.457031 19.894531 17.699219 19.605469 17.59375 C 19.316406 17.488281 19.105469 17.4375 18.898438 17.753906 C 18.6875 18.066406 18.085938 18.773438 17.902344 18.984375 C 17.71875 19.191406 17.535156 19.222656 17.21875 19.0625 C 16.90625 18.90625 15.894531 18.570312 14.691406 17.5 C 13.757812 16.667969 13.125 15.640625 12.941406 15.324219 C 12.757812 15.011719 12.925781 14.839844 13.082031 14.683594 C 13.222656 14.542969 13.394531 14.316406 13.550781 14.132812 C 13.707031 13.949219 13.761719 13.816406 13.867188 13.609375 C 13.972656 13.398438 13.917969 13.214844 13.839844 13.058594 C 13.761719 12.898438 13.148438 11.347656 12.871094 10.722656 C 12.632812 10.199219 12.386719 10.1875 12.160156 10.179688 C 11.976562 10.171875 11.769531 10.171875 11.558594 10.171875 Z M 11.558594 10.171875 "/>
</g>
</svg>
