<svg width="50" height="50" viewBox="0 0 50 50" fill="none"
    xmlns="http://www.w3.org/2000/svg">
    <path d="M25 0C11.1585 0 0 11.1585 0 25C0 38.8415 11.1585 50 25 50C38.8415 50 50 38.8415 50 25C50 11.1585 38.8415 0 25 0ZM36.0976 26.1585L19.4512 35.9146C19.2683 36.0366 18.9634 36.0976 18.7805 36.0976C18.5976 36.0976 18.2927 36.0366 18.1098 35.9146C17.6829 35.6098 17.439 35.2439 17.439 34.7561V15.3049H17.378C17.378 14.8171 17.6829 14.3293 18.0488 14.1463C18.4146 13.9634 19.0244 13.8415 19.4512 14.1463L36.0976 23.8415C36.5244 24.1463 36.7683 24.5122 36.7683 25C36.7683 25.4878 36.4634 25.9756 36.0976 26.1585Z" fill="#CC7E85"/>
</svg>
