<svg width="222" height="40" viewBox="0 0 222 40" fill="none"
    xmlns="http://www.w3.org/2000/svg">
    <path d="M1.00029 15C0.447497 15 0 15.6393 0 16.4281V23.5711C0 24.3607 0.447497 25 1.00029 25C1.5525 25 2 24.3607 2 23.5711V16.4281C2 15.6393 1.5525 15 1.00029 15V15Z" fill="#808782"/>
    <path d="M6 10C5.44794 10 5 10.5655 5 11.2625V28.7375C5 29.4352 5.44794 30 6 30C6.55206 30 7 29.4352 7 28.7375V11.2625C7 10.5655 6.55206 10 6 10Z" fill="#808782"/>
    <path d="M11 0C10.4479 0 10 0.596616 10 1.33285V38.6664C10 39.4026 10.4479 40 11 40C11.5521 40 12 39.4026 12 38.6664V1.33285C12 0.596616 11.5521 0 11 0Z" fill="#808782"/>
    <path d="M16 8C15.4479 8 15 8.58877 15 9.31607V31.6839C15 32.4105 15.4479 33 16 33C16.5521 33 17 32.4105 17 31.6839V9.31607C17 8.58877 16.5521 8 16 8Z" fill="#808782"/>
    <path d="M36 7C35.4479 7 35 7.58877 35 8.31607V30.6839C35 31.4105 35.4479 32 36 32C36.5521 32 37 31.4105 37 30.6839V8.31607C37 7.58877 36.5521 7 36 7Z" fill="#808782"/>
    <path d="M30.9997 4C30.4475 4 30 4.58448 30 5.30649V34.6943C30 35.4155 30.4475 36 30.9997 36C31.5519 36 32 35.4155 32 34.6943V5.30649C32 4.58448 31.5519 4 30.9997 4Z" fill="#808782"/>
    <path d="M41.0003 6C40.4481 6 40 6.59059 40 7.31846V33.6815C40 34.4102 40.4481 35 41.0003 35C41.5525 35 42 34.4102 42 33.6815V7.31846C42 6.59059 41.5525 6 41.0003 6Z" fill="#808782"/>
    <path d="M46.0003 13C45.4481 13 45 13.56 45 14.2502V26.7498C45 27.44 45.4481 28 46.0003 28C46.5525 28 47 27.44 47 26.7498V14.2502C47 13.56 46.5525 13 46.0003 13Z" fill="#808782"/>
    <path d="M20.9997 16C20.4475 16 20 16.5974 20 17.3336V22.6664C20 23.4034 20.4475 24 20.9997 24C21.5519 24 22 23.4034 22 22.6664V17.3336C22 16.5974 21.5519 16 20.9997 16Z" fill="#808782"/>
    <path d="M51 16C50.4479 16 50 16.6365 50 17.422V23.5772C50 24.3627 50.4479 25 51 25C51.5521 25 52 24.3627 52 23.5772V17.422C52 16.6365 51.5521 16 51 16Z" fill="#808782"/>
    <path d="M26.0003 14C25.4475 14 25 14.5737 25 15.2816V25.7177C25 26.4256 25.4475 27 26.0003 27C26.5525 27 27 26.4256 27 25.7177V15.2816C27 14.5737 26.5525 14 26.0003 14Z" fill="#808782"/>
    <path d="M56 14C55.4477 14 55 14.7098 55 15.5854V25.4146C55 26.2902 55.4477 27 56 27C56.5523 27 57 26.2902 57 25.4146V15.5854C57 14.7098 56.5523 14 56 14Z" fill="#808782"/>
    <path d="M61 6C60.4477 6 60 6.68508 60 7.53005V32.4699C60 33.3149 60.4477 34 61 34C61.5523 34 62 33.3149 62 32.4699V7.53005C62 6.68508 61.5523 6 61 6Z" fill="#808782"/>
    <path d="M66 9C65.4477 9 65 9.66557 65 10.4865V29.5135C65 30.3344 65.4477 31 66 31C66.5523 31 67 30.3344 67 29.5135V10.4865C67 9.66557 66.5523 9 66 9Z" fill="#808782"/>
    <path d="M71 14C70.4477 14 70 14.7098 70 15.5854V25.4146C70 26.2902 70.4477 27 71 27C71.5523 27 72 26.2902 72 25.4146V15.5854C72 14.7098 71.5523 14 71 14Z" fill="#808782"/>
    <path d="M76 3C75.4477 3 75 3.61168 75 4.36612V36.6339C75 37.3883 75.4477 38 76 38C76.5523 38 77 37.3883 77 36.6339V4.36612C77 3.61168 76.5523 3 76 3Z" fill="#808782"/>
    <path d="M81 8C80.4477 8 80 8.67755 80 9.51324V30.4868C80 31.3224 80.4477 32 81 32C81.5523 32 82 31.3224 82 30.4868V9.51324C82 8.67755 81.5523 8 81 8Z" fill="#808782"/>
    <path d="M86 11C85.4477 11 85 11.6795 85 12.5176V28.4824C85 29.3205 85.4477 30 86 30C86.5523 30 87 29.3205 87 28.4824V12.5176C87 11.6795 86.5523 11 86 11Z" fill="#808782"/>
    <path d="M91 14C90.4477 14 90 14.7098 90 15.5854V25.4146C90 26.2902 90.4477 27 91 27C91.5523 27 92 26.2902 92 25.4146V15.5854C92 14.7098 91.5523 14 91 14Z" fill="#808782"/>
    <path d="M96 11C95.4477 11 95 11.6795 95 12.5176V28.4824C95 29.3205 95.4477 30 96 30C96.5522 30 97 29.3205 97 28.4824V12.5176C97 11.6795 96.5522 11 96 11Z" fill="#808782"/>
    <path d="M101 8C100.448 8 100 8.67755 100 9.51324V30.4868C100 31.3224 100.448 32 101 32C101.552 32 102 31.3224 102 30.4868V9.51324C102 8.67755 101.552 8 101 8Z" fill="#808782"/>
    <path d="M106 5C105.448 5 105 5.5243 105 6.17096V33.829C105 34.4757 105.448 35 106 35C106.552 35 107 34.4757 107 33.829V6.17096C107 5.5243 106.552 5 106 5Z" fill="#808782"/>
    <path d="M111 9C110.448 9 110 9.66557 110 10.4865V29.5135C110 30.3344 110.448 31 111 31C111.552 31 112 30.3344 112 29.5135V10.4865C112 9.66557 111.552 9 111 9Z" fill="#808782"/>
    <path d="M116 14C115.448 14 115 14.7098 115 15.5854V25.4146C115 26.2902 115.448 27 116 27C116.552 27 117 26.2902 117 25.4146V15.5854C117 14.7098 116.552 14 116 14Z" fill="#808782"/>
    <path d="M121 15C120.447 15 120 15.6393 120 16.4281V23.5711C120 24.3607 120.447 25 121 25C121.553 25 122 24.3607 122 23.5711V16.4281C122 15.6393 121.553 15 121 15V15Z" fill="#808782"/>
    <path d="M126 10C125.448 10 125 10.5655 125 11.2625V28.7375C125 29.4352 125.448 30 126 30C126.552 30 127 29.4352 127 28.7375V11.2625C127 10.5655 126.552 10 126 10Z" fill="#808782"/>
    <path d="M131 3C130.448 3 130 3.52204 130 4.16624V36.8331C130 37.4773 130.448 38 131 38C131.552 38 132 37.4773 132 36.8331V4.16624C132 3.52204 131.552 3 131 3Z" fill="#808782"/>
    <path d="M136 8C135.448 8 135 8.58877 135 9.31607V31.6839C135 32.4105 135.448 33 136 33C136.552 33 137 32.4105 137 31.6839V9.31607C137 8.58877 136.552 8 136 8Z" fill="#808782"/>
    <path d="M151 4C150.447 4 150 4.58448 150 5.30649V34.6943C150 35.4155 150.447 36 151 36C151.552 36 152 35.4155 152 34.6943V5.30649C152 4.58448 151.552 4 151 4Z" fill="#808782"/>
    <path d="M161 6C160.448 6 160 6.59059 160 7.31846V33.6815C160 34.4102 160.448 35 161 35C161.553 35 162 34.4102 162 33.6815V7.31846C162 6.59059 161.553 6 161 6Z" fill="#808782"/>
    <path d="M166 13C165.448 13 165 13.56 165 14.2502V26.7498C165 27.44 165.448 28 166 28C166.553 28 167 27.44 167 26.7498V14.2502C167 13.56 166.553 13 166 13Z" fill="#808782"/>
    <path d="M156 0C155.447 0 155 0.471616 155 1.05285V38.9471C155 39.529 155.447 40 156 40C156.553 40 157 39.529 157 38.9471V1.05285C157 0.471616 156.553 0 156 0V0Z" fill="#808782"/>
    <path d="M141 16C140.447 16 140 16.5974 140 17.3336V22.6664C140 23.4034 140.447 24 141 24C141.552 24 142 23.4034 142 22.6664V17.3336C142 16.5974 141.552 16 141 16Z" fill="#808782"/>
    <path d="M171 16C170.448 16 170 16.6365 170 17.422V23.5772C170 24.3627 170.448 25 171 25C171.552 25 172 24.3627 172 23.5772V17.422C172 16.6365 171.552 16 171 16Z" fill="#808782"/>
    <path d="M146 14C145.447 14 145 14.5737 145 15.2816V25.7177C145 26.4256 145.447 27 146 27C146.553 27 147 26.4256 147 25.7177V15.2816C147 14.5737 146.553 14 146 14Z" fill="#808782"/>
    <path d="M176 14C175.448 14 175 14.7098 175 15.5854V25.4146C175 26.2902 175.448 27 176 27C176.552 27 177 26.2902 177 25.4146V15.5854C177 14.7098 176.552 14 176 14Z" fill="#808782"/>
    <path d="M181 6C180.448 6 180 6.68508 180 7.53005V32.4699C180 33.3149 180.448 34 181 34C181.552 34 182 33.3149 182 32.4699V7.53005C182 6.68508 181.552 6 181 6Z" fill="#808782"/>
    <path d="M186 9C185.448 9 185 9.66557 185 10.4865V29.5135C185 30.3344 185.448 31 186 31C186.552 31 187 30.3344 187 29.5135V10.4865C187 9.66557 186.552 9 186 9Z" fill="#808782"/>
    <path d="M191 11C190.448 11 190 11.6795 190 12.5176V28.4824C190 29.3205 190.448 30 191 30C191.552 30 192 29.3205 192 28.4824V12.5176C192 11.6795 191.552 11 191 11Z" fill="#808782"/>
    <path d="M196 14C195.448 14 195 14.7098 195 15.5854V25.4146C195 26.2902 195.448 27 196 27C196.552 27 197 26.2902 197 25.4146V15.5854C197 14.7098 196.552 14 196 14Z" fill="#808782"/>
    <path d="M201 11C200.448 11 200 11.6795 200 12.5176V28.4824C200 29.3205 200.448 30 201 30C201.552 30 202 29.3205 202 28.4824V12.5176C202 11.6795 201.552 11 201 11Z" fill="#808782"/>
    <path d="M206 8C205.448 8 205 8.67755 205 9.51324V30.4868C205 31.3224 205.448 32 206 32C206.552 32 207 31.3224 207 30.4868V9.51324C207 8.67755 206.552 8 206 8Z" fill="#808782"/>
    <path d="M211 5C210.448 5 210 5.5243 210 6.17096V33.829C210 34.4757 210.448 35 211 35C211.552 35 212 34.4757 212 33.829V6.17096C212 5.5243 211.552 5 211 5Z" fill="#808782"/>
    <path d="M216 9C215.448 9 215 9.66557 215 10.4865V29.5135C215 30.3344 215.448 31 216 31C216.552 31 217 30.3344 217 29.5135V10.4865C217 9.66557 216.552 9 216 9Z" fill="#808782"/>
    <path d="M221 14C220.448 14 220 14.7098 220 15.5854V25.4146C220 26.2902 220.448 27 221 27C221.552 27 222 26.2902 222 25.4146V15.5854C222 14.7098 221.552 14 221 14Z" fill="#808782"/>
</svg>
