<svg width="676" height="431" viewBox="0 0 676 431" fill="none" xmlns="http://www.w3.org/2000/svg">
<g clip-path="url(#clip0)">
<path d="M134.689 431C209.075 431 269.377 426.803 269.377 421.626C269.377 416.449 209.075 412.252 134.689 412.252C60.3021 412.252 0 416.449 0 421.626C0 426.803 60.3021 431 134.689 431Z" fill="#991414"/>
<path d="M102.953 95.6314C126.393 86.4953 155.588 92.2838 184.1 96.3013C184.365 91.4362 187.581 85.515 184.212 82.1207C180.119 77.9971 180.496 73.6643 182.959 69.3065C189.257 58.163 180.234 46.3057 171.123 36.4465C169.07 34.2293 166.475 32.4872 163.549 31.3618C160.622 30.2363 157.448 29.7592 154.283 29.9692L137.406 31.0738C133.299 31.3426 129.38 32.7544 126.173 35.1201C122.966 37.4859 120.623 40.6928 119.459 44.3118V44.3118C115.43 49.3341 113.273 54.3425 114.631 59.3249C108.595 63.1048 107.581 67.6677 110.293 72.8114C112.593 76.0501 112.568 79.2027 110.188 82.268C107.063 86.1761 104.668 90.5337 103.104 95.1622L102.953 95.6314Z" fill="#2F2E41"/>
<path d="M659.981 372.593H182.248C178 372.593 173.925 371.046 170.921 368.293C167.917 365.54 166.229 361.806 166.229 357.913C339.408 339.47 509.331 339.47 676 357.913C676 361.806 674.312 365.54 671.308 368.293C668.304 371.046 664.23 372.593 659.981 372.593Z" fill="#2F2E41"/>
<path d="M676 358.777L166.229 357.913L225.31 266.816L225.593 266.384V65.616C225.593 63.1792 226.116 60.7661 227.134 58.5146C228.151 56.2632 229.643 54.2175 231.523 52.4944C233.404 50.7712 235.636 49.4044 238.093 48.4719C240.55 47.5394 243.183 47.0596 245.842 47.0598H593.56C596.22 47.0596 598.853 47.5394 601.31 48.4719C603.767 49.4044 605.999 50.7712 607.879 52.4944C609.76 54.2175 611.251 56.2632 612.269 58.5146C613.286 60.7661 613.81 63.1792 613.81 65.616V267.766L676 358.777Z" fill="#3F3D56"/>
<path d="M245.381 60.012C243.632 60.0138 241.955 60.6512 240.719 61.7843C239.482 62.9175 238.787 64.4538 238.785 66.0563V249.115C238.787 250.717 239.482 252.253 240.719 253.387C241.955 254.52 243.632 255.157 245.381 255.159H596.849C598.598 255.157 600.274 254.52 601.511 253.386C602.747 252.253 603.443 250.717 603.445 249.115V66.0563C603.443 64.4538 602.747 62.9175 601.511 61.7844C600.274 60.6513 598.598 60.0138 596.849 60.012H245.381Z" fill="white"/>
<path d="M246.853 279.336C246.313 279.337 245.784 279.48 245.329 279.747C244.874 280.014 244.512 280.395 244.285 280.844L226.08 317.11C225.882 317.505 225.796 317.939 225.828 318.372C225.861 318.806 226.012 319.225 226.268 319.591C226.524 319.956 226.876 320.257 227.292 320.466C227.708 320.674 228.174 320.784 228.648 320.784H611.481C611.963 320.784 612.437 320.671 612.857 320.456C613.278 320.241 613.632 319.931 613.885 319.555C614.139 319.179 614.283 318.751 614.305 318.309C614.326 317.868 614.224 317.429 614.009 317.035L594.221 280.768C593.987 280.337 593.627 279.975 593.18 279.721C592.733 279.468 592.218 279.335 591.693 279.336H246.853Z" fill="#2F2E41"/>
<path d="M419.701 56.9898C422.043 56.9898 423.942 55.2502 423.942 53.1042C423.942 50.9582 422.043 49.2185 419.701 49.2185C417.36 49.2185 415.461 50.9582 415.461 53.1042C415.461 55.2502 417.36 56.9898 419.701 56.9898Z" fill="white"/>
<path d="M382.072 327.691C381.451 327.692 380.847 327.88 380.354 328.227C379.86 328.573 379.505 329.058 379.343 329.608L374.776 345.151C374.663 345.535 374.648 345.937 374.733 346.327C374.817 346.717 374.998 347.085 375.262 347.4C375.526 347.716 375.865 347.972 376.254 348.147C376.644 348.323 377.072 348.415 377.506 348.415H464.349C464.8 348.415 465.244 348.316 465.644 348.127C466.045 347.938 466.39 347.663 466.652 347.327C466.913 346.991 467.083 346.602 467.147 346.193C467.211 345.784 467.167 345.367 467.019 344.977L461.149 329.434C460.956 328.926 460.595 328.484 460.117 328.172C459.638 327.86 459.065 327.692 458.477 327.691H382.072Z" fill="#2F2E41"/>
<path d="M613.81 263.362V266.816H225.31L225.602 266.384V263.362H613.81Z" fill="#2F2E41"/>
<path d="M602.974 120.888C639.402 120.888 668.933 93.8259 668.933 60.4438C668.933 27.0616 639.402 0 602.974 0C566.545 0 537.015 27.0616 537.015 60.4438C537.015 93.8259 566.545 120.888 602.974 120.888Z" fill="black"/>
<path d="M630.3 86.7799H575.648C574.648 86.779 573.69 86.4148 572.984 85.7673C572.277 85.1197 571.88 84.2417 571.879 83.326V53.1041C571.88 52.1883 572.277 51.3104 572.984 50.6629C573.69 50.0153 574.648 49.6511 575.648 49.6501H630.3C631.299 49.6511 632.257 50.0153 632.964 50.6629C633.67 51.3104 634.068 52.1883 634.069 53.1041V83.3259C634.068 84.2417 633.67 85.1197 632.964 85.7673C632.257 86.4148 631.299 86.779 630.3 86.7799ZM575.648 53.1041V83.326H630.302L630.3 53.1041L575.648 53.1041Z" fill="white"/>
<path d="M619.935 53.1042H586.013V39.2885C586.013 29.2817 593.146 22.0188 602.974 22.0188C612.801 22.0188 619.935 29.2817 619.935 39.2885L619.935 53.1042ZM589.782 49.6502H616.166V39.2885C616.166 31.1541 610.741 25.4727 602.974 25.4727C595.207 25.4727 589.782 31.1541 589.782 39.2885L589.782 49.6502Z" fill="white"/>
<path d="M602.974 70.8056C605.055 70.8056 606.743 69.2592 606.743 67.3516C606.743 65.4441 605.055 63.8977 602.974 63.8977C600.892 63.8977 599.205 65.4441 599.205 67.3516C599.205 69.2592 600.892 70.8056 602.974 70.8056Z" fill="white"/>
<path d="M556.929 193.068H285.301C283.968 193.066 282.689 192.58 281.746 191.716C280.803 190.852 280.273 189.68 280.271 188.458V126.713C280.273 125.491 280.803 124.319 281.746 123.455C282.689 122.591 283.968 122.105 285.301 122.104H556.929C558.262 122.105 559.541 122.591 560.484 123.455C561.427 124.319 561.957 125.491 561.959 126.713V188.458C561.957 189.68 561.427 190.852 560.484 191.716C559.541 192.58 558.262 193.066 556.929 193.068V193.068ZM285.301 123.947C284.501 123.948 283.734 124.24 283.168 124.758C282.602 125.277 282.284 125.98 282.283 126.713V188.458C282.284 189.191 282.602 189.894 283.168 190.413C283.734 190.931 284.501 191.223 285.301 191.224H556.929C557.729 191.223 558.496 190.931 559.062 190.413C559.627 189.894 559.946 189.191 559.947 188.458V126.713C559.946 125.98 559.627 125.277 559.062 124.758C558.496 124.24 557.729 123.948 556.929 123.947L285.301 123.947Z" fill="#E6E6E6"/>
<path d="M327.506 173.993C338.823 173.993 347.996 165.587 347.996 155.216C347.996 144.846 338.823 136.44 327.506 136.44C316.19 136.44 307.016 144.846 307.016 155.216C307.016 165.587 316.19 173.993 327.506 173.993Z" fill="#E6E6E6"/>
<path d="M374.829 142.698C374.38 142.698 373.935 142.778 373.52 142.935C373.105 143.092 372.728 143.323 372.411 143.613C372.093 143.904 371.841 144.249 371.669 144.629C371.497 145.009 371.408 145.417 371.408 145.828C371.408 146.239 371.497 146.647 371.669 147.027C371.841 147.407 372.093 147.752 372.411 148.043C372.728 148.333 373.105 148.564 373.52 148.721C373.935 148.878 374.38 148.958 374.829 148.957H535.822C536.728 148.957 537.597 148.628 538.237 148.041C538.877 147.454 539.237 146.658 539.237 145.828C539.237 144.998 538.877 144.202 538.237 143.615C537.597 143.028 536.728 142.698 535.822 142.698H374.829Z" fill="#E6E6E6"/>
<path d="M374.829 161.475C373.923 161.475 373.054 161.805 372.414 162.392C371.774 162.979 371.414 163.775 371.414 164.605C371.414 165.435 371.774 166.231 372.414 166.817C373.054 167.404 373.923 167.734 374.829 167.734H444.105C445.011 167.734 445.879 167.404 446.52 166.817C447.16 166.231 447.52 165.435 447.52 164.605C447.52 163.775 447.16 162.979 446.52 162.392C445.879 161.805 445.011 161.475 444.105 161.475H374.829Z" fill="#E6E6E6"/>
<path d="M224.642 162.741L174.429 187.204L173.794 166.818C190.183 164.311 205.775 159.946 220.192 152.839L225.444 140.95C226.016 139.654 226.946 138.517 228.143 137.651C229.339 136.784 230.761 136.217 232.269 136.006C233.777 135.795 235.318 135.947 236.743 136.447C238.167 136.947 239.425 137.778 240.393 138.858V138.858C241.81 140.438 242.518 142.453 242.374 144.493C242.23 146.534 241.245 148.448 239.619 149.848L224.642 162.741Z" fill="#FFB8B8"/>
<path d="M101.953 303.982C101.586 302.751 101.509 301.462 101.724 300.202C101.94 298.941 102.445 297.737 103.205 296.667L114.235 281.155C116.844 277.486 120.847 274.836 125.468 273.719C130.089 272.602 134.998 273.097 139.242 275.109V275.109C134.607 282.34 135.253 288.684 140.843 294.196C132.165 298.079 124.144 303.09 117.029 309.074C115.73 309.885 114.238 310.401 112.678 310.577C111.118 310.753 109.534 310.585 108.059 310.087C106.584 309.589 105.261 308.775 104.198 307.713C103.136 306.651 102.366 305.372 101.953 303.982V303.982Z" fill="#2F2E41"/>
<path d="M226.929 283.699C225.26 286.248 222.903 288.362 220.086 289.836C217.269 291.311 214.086 292.097 210.842 292.119L137.564 292.628L134.386 275.737L166.802 267L139.471 247.779L169.344 215.744L223.603 262.087C226.775 264.796 228.835 268.42 229.441 272.354C230.046 276.288 229.159 280.292 226.929 283.699V283.699Z" fill="#2F2E41"/>
<path d="M126.124 399.217H108.962C93.5541 302.431 77.87 205.374 124.217 169.148L178.878 177.303L171.887 219.822L141.378 251.856L126.124 399.217Z" fill="#2F2E41"/>
<path d="M141.209 421.142C139.866 421.477 138.46 421.549 137.084 421.351C135.708 421.153 134.394 420.691 133.227 419.994L114.594 417.699C110.59 415.309 107.698 411.64 106.478 407.406C105.259 403.172 105.799 398.673 107.995 394.784C115.886 399.031 122.808 398.439 128.824 393.315C133.074 401.18 140.077 400.7 146.765 407.326C147.65 408.516 148.213 409.883 148.405 411.313C148.598 412.742 148.414 414.193 147.871 415.545C147.327 416.897 146.439 418.11 145.28 419.083C144.122 420.057 142.726 420.763 141.209 421.142V421.142Z" fill="#2F2E41"/>
<path d="M166.802 104.496L135.022 97.5067C140.3 87.6061 140.735 76.5897 138.2 64.8893L159.81 64.3069C160.487 78.8566 162.536 92.4497 166.802 104.496Z" fill="#FFB8B8"/>
<path d="M175.536 194.84C152.402 209.286 136.055 195.334 123.581 173.808C125.315 160.636 122.508 144.872 117.31 127.745C114.998 120.19 115.861 112.116 119.729 105.116C123.596 98.1157 130.187 92.6989 138.2 89.9346V89.9346L165.531 100.419C188.738 117.753 193.306 136.53 184.599 156.334L175.536 194.84Z" fill="black"/>
<path d="M108.962 119.057L83.5383 131.289L128.666 155.752L134.945 169.945C135.364 170.893 135.568 171.908 135.545 172.93C135.522 173.952 135.272 174.959 134.81 175.89C134.348 176.82 133.685 177.655 132.859 178.343C132.034 179.031 131.065 179.557 130.01 179.89V179.89C128.811 180.269 127.533 180.389 126.276 180.239C125.018 180.09 123.815 179.676 122.762 179.029C121.708 178.383 120.832 177.521 120.202 176.513C119.572 175.504 119.206 174.376 119.131 173.216L118.496 163.324L61.1396 145.979C59.2071 145.394 57.4451 144.415 55.987 143.114C54.5289 141.813 53.4129 140.225 52.7236 138.47V138.47C51.7188 135.913 51.6677 133.122 52.5782 130.535C53.4886 127.948 55.3093 125.711 57.7553 124.173L103.878 95.1768L108.962 119.057Z" fill="#FFB8B8"/>
<path d="M134.386 121.387C123.783 117.129 114.141 121.755 101.971 125.464L100.064 94.5942C112.149 88.6919 123.67 87.1006 134.386 91.682L134.386 121.387Z" fill="black"/>
<path d="M147.07 79.5977C158.277 79.5977 167.361 71.2731 167.361 61.0041C167.361 50.7351 158.277 42.4104 147.07 42.4104C135.864 42.4104 126.78 50.7351 126.78 61.0041C126.78 71.2731 135.864 79.5977 147.07 79.5977Z" fill="#FFB8B8"/>
<path d="M171.344 58.6581C151.255 60.4611 135.947 57.4503 126.164 48.8777V41.9739H169.639L171.344 58.6581Z" fill="#2F2E41"/>
</g>
<defs>
<clipPath id="clip0">
<rect width="676" height="431" fill="white"/>
</clipPath>
</defs>
</svg>
