<svg width="642" height="508" viewBox="0 0 642 508" fill="none" xmlns="http://www.w3.org/2000/svg">
<path d="M481.626 57.0719C493.043 57.0719 502.298 47.8806 502.298 36.5425C502.298 25.2045 493.043 16.0132 481.626 16.0132C470.21 16.0132 460.955 25.2045 460.955 36.5425C460.955 47.8806 470.21 57.0719 481.626 57.0719Z" fill="#2F2E41"/>
<path d="M467.018 49.0686C467.018 49.0686 464.028 86.4624 460.44 86.4624C456.852 86.4624 502.3 84.7026 502.3 84.7026C502.3 84.7026 483.164 60.0667 492.732 52.1481C502.3 44.2294 467.018 49.0686 467.018 49.0686Z" fill="#9F616A"/>
<path opacity="0.1" d="M467.018 49.0686C467.018 49.0686 464.028 86.4624 460.44 86.4624C456.852 86.4624 502.3 84.7026 502.3 84.7026C502.3 84.7026 483.164 60.0667 492.732 52.1481C502.3 44.2294 467.018 49.0686 467.018 49.0686Z" fill="black"/>
<path d="M383.399 479.045C341.814 479.046 301.514 464.726 269.368 438.525C237.222 412.325 215.217 375.866 207.104 335.359C198.991 294.853 205.271 252.806 224.874 216.383C244.478 179.959 276.191 151.413 314.611 135.608C353.032 119.803 395.781 117.718 435.576 129.706C475.372 141.695 509.75 167.016 532.854 201.356C555.958 235.695 566.357 276.929 562.281 318.03C558.205 359.131 539.905 397.557 510.5 426.76C493.848 443.389 474.04 456.572 452.223 465.546C430.406 474.521 407.014 479.109 383.399 479.045V479.045ZM383.399 123.871C285.313 123.871 205.515 203.121 205.515 300.533C205.515 397.945 285.313 477.195 383.399 477.195C481.485 477.195 561.284 397.945 561.284 300.533C561.284 203.121 481.485 123.871 383.399 123.871V123.871Z" fill="#3F3D56"/>
<path d="M520.711 130.882L499.816 136.82L529.003 135.498C535.563 135.144 542.011 137.298 547.021 141.519C552.221 145.99 556.412 153.081 552.376 163.563C544.305 184.528 531.887 204.26 531.887 204.26L523.815 219.676C523.815 219.676 507.051 222.142 506.43 217.209C505.81 212.276 506.43 209.81 509.535 207.343C512.639 204.877 514.502 199.944 514.502 197.477C514.502 195.011 513.881 192.545 515.744 191.311C517.606 190.078 518.227 188.228 518.227 184.528C518.227 180.829 528.998 164.568 528.998 164.568C528.998 164.568 506.43 156.78 496.712 163.335C486.993 169.889 467.314 198.711 467.314 198.711C466.023 200.052 464.942 201.578 464.106 203.238C463.109 205.164 461.728 206.87 460.047 208.251C458.242 209.827 459.905 214.167 460.485 214.743C461.106 215.36 467.314 240.024 467.314 240.024C467.314 240.024 474.144 251.74 466.694 252.357C459.243 252.973 452.413 253.59 451.792 252.357C451.102 250.648 450.271 248.998 449.309 247.424C447.446 244.341 449.309 237.558 449.309 237.558C449.309 237.558 431.303 214.743 436.891 200.561C442.479 186.378 454.276 154.314 454.276 154.314L472.282 146.914L505.189 135.199L520.711 130.882Z" fill="#2F2E41"/>
<path d="M395.291 64.2872L369.835 59.3542C369.835 59.3542 363.626 38.3891 356.175 40.8555C348.724 43.322 361.142 64.2872 361.142 64.2872L396.533 80.3194L395.291 64.2872Z" fill="#A0616A"/>
<path d="M549.893 85.2524L561.069 99.4348C561.069 99.4348 577.212 98.8181 572.245 107.451C567.278 116.084 556.102 111.151 555.481 109.301C554.86 107.451 536.854 91.4187 536.854 91.4187L549.893 85.2524Z" fill="#A0616A"/>
<path d="M491.745 66.5253L475.602 78.8577L465.667 64.0588L388.677 59.7424V85.0239C407.624 79.5907 425.064 77.9075 438.969 85.0239C456.569 108.298 460.441 133.571 449.309 161.031L540.174 129.421C512.94 119.349 500.298 104.748 504.162 85.0239L535.828 96.1231L555.075 81.9408C537.863 70.4384 512.247 63.2242 491.745 66.5253Z" fill="black"/>
<path d="M321 508C498.283 508 642 497.233 642 483.952C642 470.67 498.283 459.904 321 459.904C143.717 459.904 0 470.67 0 483.952C0 497.233 143.717 508 321 508Z" fill="#3F3D56"/>
<path opacity="0.1" d="M231.281 499.367C351.128 499.367 448.282 492.189 448.282 483.335C448.282 474.481 351.128 467.303 231.281 467.303C111.435 467.303 14.2805 474.481 14.2805 483.335C14.2805 492.189 111.435 499.367 231.281 499.367Z" fill="black"/>
<path d="M580.632 451.309C578.564 469.309 589.706 485.353 589.706 485.353C589.706 485.353 604.202 472.214 606.27 454.215C608.338 436.215 597.196 420.171 597.196 420.171C597.196 420.171 582.701 433.31 580.632 451.309Z" fill="#2F2E41"/>
<path d="M588.534 450.38C595.99 466.914 590.258 485.555 590.258 485.555C590.258 485.555 572.439 477.388 564.984 460.854C557.528 444.32 563.26 425.679 563.26 425.679C563.26 425.679 581.079 433.846 588.534 450.38Z" fill="black"/>
<path d="M388.403 483.003C426.828 483.003 457.977 452.067 457.977 413.907C457.977 375.746 426.828 344.811 388.403 344.811C349.978 344.811 318.829 375.746 318.829 413.907C318.829 452.067 349.978 483.003 388.403 483.003Z" fill="#F2F2F2"/>
<path d="M388.403 307.383L371.263 349.937L309.287 350.431L289.097 350.592L241.183 350.975L221.001 351.137L173.088 351.52L152.906 351.682L104.993 352.073L84.8111 352.235L52.4688 352.49L46.213 339.775L38.0974 323.307L33.6154 314.192L31.0445 307.383L46.4272 258.999C47.9311 254.271 50.9126 250.143 54.9392 247.212C58.9657 244.281 63.8278 242.701 68.82 242.7H348.691C353.538 242.703 358.266 244.195 362.226 246.971C366.186 249.747 369.184 253.672 370.809 258.207L372.592 263.195L388.403 307.383Z" fill="black"/>
<path d="M388.403 307.384H31.0445V396.748H388.403V307.384Z" fill="black"/>
<path opacity="0.1" d="M388.403 307.384H31.0445V396.748H388.403V307.384Z" fill="black"/>
<path d="M393.674 184.634H383.132V195.103H393.674V184.634Z" fill="#3F3D56"/>
<path d="M422.136 408.672H411.594V419.141H422.136V408.672Z" fill="#3F3D56"/>
<path d="M323.701 192.061H94.8891V478.025H323.701V192.061Z" fill="#F2F2F2"/>
<path d="M209.724 212.487H142.88V221.849H209.724V212.487Z" fill="#3F3D56"/>
<path d="M309.133 250.786H107.744V255.041H309.133V250.786Z" fill="#E6E6E6"/>
<path d="M309.133 264.403H107.744V268.658H309.133V264.403Z" fill="#E6E6E6"/>
<path d="M309.133 278.02H107.744V282.276H309.133V278.02Z" fill="#E6E6E6"/>
<path d="M309.133 291.638H107.744V295.893H309.133V291.638Z" fill="#E6E6E6"/>
<path d="M309.133 305.255H107.744V309.511H309.133V305.255Z" fill="#E6E6E6"/>
<path d="M309.133 318.872H107.744V323.128H309.133V318.872Z" fill="#E6E6E6"/>
<path d="M116.313 229.509C113.432 229.509 110.615 228.66 108.22 227.07C105.824 225.48 103.957 223.221 102.854 220.577C101.751 217.933 101.463 215.024 102.025 212.218C102.587 209.411 103.975 206.833 106.012 204.809C108.049 202.786 110.645 201.408 113.471 200.85C116.297 200.292 119.227 200.578 121.889 201.673C124.551 202.768 126.826 204.623 128.427 207.002C130.028 209.381 130.882 212.179 130.882 215.04C130.878 218.876 129.341 222.554 126.61 225.266C123.879 227.979 120.176 229.504 116.313 229.509V229.509ZM116.313 202.274C113.771 202.274 111.286 203.023 109.172 204.425C107.058 205.828 105.41 207.822 104.437 210.155C103.464 212.487 103.21 215.054 103.706 217.531C104.202 220.007 105.426 222.282 107.224 224.067C109.022 225.853 111.312 227.069 113.806 227.561C116.299 228.054 118.884 227.801 121.233 226.835C123.582 225.868 125.589 224.232 127.002 222.133C128.414 220.033 129.168 217.565 129.168 215.04C129.164 211.656 127.809 208.411 125.399 206.017C122.989 203.624 119.722 202.278 116.313 202.274V202.274Z" fill="black"/>
<path d="M388.403 485.259H31.0445V307.383L77.3213 343.129L343.84 341.426L388.403 307.383V485.259Z" fill="#3F3D56"/>
<path d="M116.313 443.982H49.4694V453.344H116.313V443.982Z" fill="#F2F2F2"/>
<path d="M84.548 426.402C83.0744 426.402 81.6339 425.968 80.4087 425.155C79.1834 424.342 78.2284 423.186 77.6645 421.834C77.1006 420.482 76.953 418.995 77.2405 417.559C77.528 416.124 78.2376 414.805 79.2796 413.771C80.3216 412.736 81.6492 412.031 83.0945 411.745C84.5398 411.46 86.0378 411.606 87.3993 412.167C88.7607 412.727 89.9244 413.675 90.743 414.892C91.5617 416.109 91.9987 417.539 91.9987 419.003C91.9965 420.965 91.2107 422.845 89.814 424.232C88.4172 425.62 86.5234 426.4 84.548 426.402V426.402ZM84.548 412.837C83.32 412.837 82.1196 413.198 81.0986 413.876C80.0775 414.553 79.2817 415.516 78.8118 416.643C78.3418 417.77 78.2189 419.01 78.4584 420.206C78.698 421.402 79.2893 422.501 80.1577 423.363C81.026 424.225 82.1323 424.813 83.3367 425.05C84.5411 425.288 85.7895 425.166 86.9241 424.7C88.0586 424.233 89.0283 423.443 89.7105 422.429C90.3928 421.414 90.7569 420.222 90.7569 419.003C90.7551 417.368 90.1004 415.801 88.9364 414.645C87.7724 413.489 86.1942 412.838 84.548 412.837V412.837Z" fill="white"/>
<path d="M521.953 216.593C521.953 216.593 525.678 230.775 526.92 231.392C528.161 232.008 541.821 243.724 532.508 245.574C523.194 247.424 516.365 246.807 514.502 244.957C512.639 243.108 513.26 241.258 510.156 240.641C507.051 240.024 501.463 238.175 502.084 233.858C502.705 229.542 505.81 217.826 507.672 216.593C509.535 215.36 521.953 216.593 521.953 216.593Z" fill="#2F2E41"/>
<path d="M467.935 248.041C467.935 248.041 473.523 252.357 470.419 260.373C467.314 268.389 462.968 277.022 462.968 277.022C462.968 277.022 458.001 292.437 449.929 289.971C446.65 288.969 445.011 286.237 444.22 283.346C443.649 281.161 443.556 278.881 443.944 276.657C444.333 274.433 445.196 272.318 446.475 270.452L451.171 263.456L456.138 250.507L467.935 248.041Z" fill="#2F2E41"/>
<path d="M454.308 307.739C465.438 307.739 479.208 304.077 492.628 290.842C525.479 258.439 556.689 255.189 557 255.161L556.885 253.932C556.569 253.962 524.916 257.256 491.752 289.967C474.711 306.775 457.122 307.805 445.367 305.707C437.603 304.307 430.209 301.347 423.637 297.01L422.903 298.004C429.615 302.442 437.167 305.473 445.099 306.912C448.138 307.46 451.219 307.736 454.308 307.739Z" fill="#2F2E41"/>
<path d="M540.269 281.03C544.384 281.03 547.72 277.717 547.72 273.63C547.72 269.544 544.384 266.231 540.269 266.231C536.154 266.231 532.818 269.544 532.818 273.63C532.818 277.717 536.154 281.03 540.269 281.03Z" fill="#2F2E41"/>
<path d="M487.493 315.561C491.608 315.561 494.944 312.248 494.944 308.161C494.944 304.075 491.608 300.762 487.493 300.762C483.378 300.762 480.043 304.075 480.043 308.161C480.043 312.248 483.378 315.561 487.493 315.561Z" fill="#2F2E41"/>
<path d="M479.952 62.9643C488.18 62.9643 494.85 56.3398 494.85 48.168C494.85 39.9961 488.18 33.3716 479.952 33.3716C471.723 33.3716 465.053 39.9961 465.053 48.168C465.053 56.3398 471.723 62.9643 479.952 62.9643Z" fill="#A0616A"/>
<path d="M492.416 0C490.854 2.21559 488.539 3.79631 485.896 4.45127C481.337 5.66372 485.859 12.4678 485.859 12.4678C485.859 12.4678 484.215 9.9936 486.586 7.37334C488.958 4.75308 492.775 2.96167 492.416 0Z" fill="#2F2E41"/>
<path d="M485.051 19.8212C488.233 19.8212 490.812 17.2597 490.812 14.1C490.812 10.9402 488.233 8.37866 485.051 8.37866C481.87 8.37866 479.29 10.9402 479.29 14.1C479.29 17.2597 481.87 19.8212 485.051 19.8212Z" fill="#2F2E41"/>
<path d="M492.406 18.8953C487.71 17.1312 479.89 16.2367 475.867 16.8481L476.419 12.8469C480.286 14.8322 488.07 15.7651 492.958 14.8941L492.406 18.8953Z" fill="#3F3D56"/>
<path d="M482.077 23.4109C482.077 23.4109 476.191 33.1337 462.505 36.7735C448.818 40.4133 462.393 60.839 462.393 60.839C462.393 60.839 457.456 53.4115 464.576 45.5455C471.696 37.6795 483.154 32.3017 482.077 23.4109Z" fill="#2F2E41"/>
<path d="M482.544 22.8198C482.544 22.8198 488.199 36.1746 494.406 37.4372C500.614 38.6998 500.143 59.8017 490.435 62.966C490.435 62.966 497.514 50.5952 491.463 42.2986C485.413 34.0021 481.591 27.4435 482.544 22.8198Z" fill="#2F2E41"/>
</svg>
