<?xml version="1.0" encoding="UTF-8"?>
<svg width="252px" height="252px" viewBox="0 0 252 252" version="1.1" xmlns="http://www.w3.org/2000/svg" xmlns:xlink="http://www.w3.org/1999/xlink">
    <!-- Generator: Sketch 58 (84663) - https://sketch.com -->
    <title>adventure__waving</title>
    <desc>Created with Sketch.</desc>
    <defs>
        <path d="M126,0 C195.587878,0 252,56.4121215 252,126 C252,195.587878 195.587878,252 126,252 C56.4121215,252 0,195.587878 0,126 C0,56.4121215 56.4121215,0 126,0 Z" id="path-1"></path>
    </defs>
    <g id="Round-3" stroke="none" stroke-width="1" fill="none" fill-rule="evenodd">
        <g id="Home---Desktop" transform="translate(-147.000000, -1182.000000)">
            <g id="Hero" transform="translate(-27.000000, 198.000000)">
                <g id="Journey" transform="translate(127.000000, 822.000000)">
                    <g id="Col-1" transform="translate(0.000000, 162.000000)">
                        <g id="waving2" transform="translate(47.000000, 0.000000)">
                            <circle id="Oval-16" fill="#4CE8E3" cx="126" cy="126" r="126"></circle>
                            <mask id="mask-2" fill="white">
                                <use xlink:href="#path-1"></use>
                            </mask>
                            <use id="Mask" fill-opacity="0" fill="#D0021B" xlink:href="#path-1"></use>
                            <g id="ghop" mask="url(#mask-2)">
                                <g transform="translate(0.000000, 45.000000)">
                                    <path d="M0.586285664,284.887559 C37.4160098,288.60796 79.8427353,263.885197 105.523007,220.012685 C131.203279,176.140174 132.449202,126.253115 111.817963,94.8603337 L0.586285664,284.887559 Z" id="Fill-60" stroke="none" fill="#35C733" fill-rule="evenodd"></path>
                                    <path d="M66.40625,30.2382812 L73.6677628,31.9294281 C69.2144695,50.9421271 70.4853764,69.7441341 77.4804837,88.3354492 C84.4755909,106.926764 93.9946604,119.416348 106.037692,125.804199" id="Path-7-Copy" stroke="#03324B" stroke-width="1.8" fill="none" transform="translate(86.221971, 78.021240) rotate(-5.000000) translate(-86.221971, -78.021240) "></path>
                                    <g id="phone" stroke="none" stroke-width="1" fill="none" fill-rule="evenodd" transform="translate(64.027684, 25.655032) rotate(13.000000) translate(-64.027684, -25.655032) translate(49.027684, 4.155032)">
                                        <path d="M19.4835725,42.5576471 L3.45386123,39.9654159 C1.24007083,39.6074148 -0.265334116,37.5152815 0.091263405,35.2934676 L5.19081409,3.50931952 C5.54741161,1.28681583 7.6306557,-0.22451427 9.84444609,0.132797 L25.8741574,2.72502818 C28.0879478,3.08302924 29.5933527,5.1751626 29.2367552,7.3969765 L24.1372045,39.1811245 C23.780607,41.4036282 21.6973629,42.9156481 19.4835725,42.5576471" id="Fill-30" fill="#FFFFFF"></path>
                                        <path d="M16.0904681,12.5699883 L14.1480766,11.394586 C14.0402041,12.0705803 14.231214,12.8645287 14.4593265,13.1638976 L11.7302217,12.7231217 C11.7597664,14.2158275 13.4183915,15.7071537 15.2515364,16.0037634 L14.2298398,16.7473572 C14.0017273,16.9135966 14.0862389,17.2750466 14.3651957,17.3198829 C14.447646,17.332989 14.5321576,17.312985 14.6008661,17.2640099 L16.1303191,16.1499989 C16.1371899,16.1548275 16.137877,16.1548275 16.145435,16.159656 L15.9716023,17.2460754 C15.9434318,17.4192127 16.0540526,17.5895909 16.225824,17.6206314 C16.4003438,17.6523618 16.5659315,17.5330281 16.594102,17.3571316 L16.7720572,16.2493287 L17.3966182,16.3500381 L17.2207242,17.4481839 C17.1925537,17.6213212 17.3038616,17.7916994 17.475633,17.8227399 C17.6501528,17.8544703 17.8157405,17.7351366 17.843911,17.5592401 L18.0218662,16.4514372 C18.2754009,14.8731975 17.5354095,13.458438 16.0904681,12.5699883" id="Fill-32" fill="#03324B"></path>
                                        <path d="M19.2843177,13.9441882 L18.8885563,13.8800377 C18.9600132,13.4344333 19.134533,13.0157307 19.3798226,12.6446236 C19.4925047,12.4735557 19.3894418,12.242476 19.1881257,12.2093661 C19.087124,12.1935009 18.9861224,12.2335087 18.9222235,12.3135244 C18.5834902,12.7370555 18.3560648,13.2392227 18.269492,13.7800181 C18.0867271,14.9216207 18.6123478,16.0583948 19.5976288,16.6516143 L19.7226784,16.7261116 L20.0071319,14.9519715 C20.0840855,14.4725674 19.7604681,14.0207549 19.2843177,13.9441882" id="Fill-34" fill="#03324B"></path>
                                    </g>
                                    <path d="M56.40625,29.2382812 L63.6677628,30.9294281 C59.2144695,49.9421271 60.4853764,68.7441341 67.4804837,87.3354492 C74.4755909,105.926764 83.9946604,118.416348 96.0376922,124.804199" id="Path-7" stroke="#03324B" stroke-width="1.8" fill="none"></path>
                                    <path d="M152.631579,153.6 C167.559723,169.865957 178.532963,182.406765 185.5513,191.222422 C192.569637,200.038079 197.571411,207.563314 200.55662,213.798126" id="Path-6" stroke="#00324B" stroke-width="1.8" fill="none"></path>
                                    <path d="M156.631579,145.6 C171.559723,161.865957 182.532963,174.406765 189.5513,183.222422 C196.569637,192.038079 201.571411,199.563314 204.55662,205.798126" id="Path-6-Copy" stroke="#00324B" stroke-width="1.8" fill="none"></path>
                                    <path d="M141.670815,89.530237 C140.897125,89.3087123 140.114525,89.1084297 139.320045,88.9339411 C138.527049,88.7609697 137.732569,88.6122751 136.938089,88.4908917 C106.539942,83.8282519 79.1697289,119.821464 83.2728106,157.550458 L83.3277559,158.067855 C84.9508715,173.415268 86.3839058,188.79151 87.0595852,204.211753 C87.6209188,217.022253 96.5176116,228.339738 109.362945,231.163419 C122.295894,234.006825 135.044702,227.320117 140.653583,215.735589 C147.316821,201.981333 154.888886,188.706541 162.49659,175.474234 L162.722311,175.081255 C181.7141,142.435191 171.277452,98.0589379 141.670815,89.530237" id="Fill-63" stroke="none" fill="#C3F6A2" fill-rule="evenodd"></path>
                                    <path d="M133.451654,67.0035202 L131.775225,67.0035202 L131.775225,7.01446638 C131.775225,4.54818397 129.781633,2.54263082 127.331031,2.54263082 C124.880429,2.54263082 122.886402,4.54818397 122.886402,7.01446638 L121.209536,7.01446638 C121.209536,3.61839638 123.955518,0.855335933 127.331031,0.855335933 C130.706109,0.855335933 133.451654,3.61839638 133.451654,7.01446638 L133.451654,67.0035202 Z" id="Fill-56" stroke="none" fill="#03324B" fill-rule="evenodd"></path>
                                    <path d="M144.987167,67.0035202 L143.310738,67.0035202 L143.310738,7.01446638 C143.310738,3.61839638 146.056283,0.855335933 149.431361,0.855335933 C152.806875,0.855335933 155.55242,3.61839638 155.55242,7.01446638 L153.87599,7.01446638 C153.87599,4.54818397 151.881963,2.54263082 149.431361,2.54263082 C146.980759,2.54263082 144.987167,4.54818397 144.987167,7.01446638 L144.987167,67.0035202 Z" id="Fill-58" stroke="none" fill="#03324B" fill-rule="evenodd"></path>
                                    <path d="M111.358649,64.5460442 C106.780365,70.6106621 104.030127,78.1865034 104.031611,86.4375398 C104.037552,106.264 119.771229,122.332128 139.17585,122.327577 C158.578986,122.323024 174.306723,106.24731 174.302269,86.4208496 C174.300783,78.1698132 171.54609,70.5939719 166.966321,64.5339058 L111.358649,64.5460442 Z" id="Fill-66" stroke="none" fill="#35C733" fill-rule="evenodd"></path>
                                    <path d="M139.000186,91 C131.280409,91 125,84.2713007 125,76 L126.435266,76 C126.435266,83.4224703 132.072267,89.4617946 139.000186,89.4617946 C145.928106,89.4617946 151.564734,83.4224703 151.564734,76 L153,76 C153,84.2713007 146.719591,91 139.000186,91" id="Fill-29" stroke="none" fill="#03324B" fill-rule="evenodd"></path>
                                    <path d="M122.197587,76.1012884 C122.199071,83.5481598 116.291703,89.5869838 109.003276,89.5885013 C101.714848,89.5900183 95.805995,83.5542289 95.8045088,76.1073575 C95.8015399,68.6604861 101.708908,62.6216621 108.997336,62.6201446 C116.285763,62.6186276 122.196101,68.654417 122.197587,76.1012884" id="Fill-69" stroke="none" fill="#FFFFFF" fill-rule="evenodd"></path>
                                    <path d="M111.828507,76.1035643 C111.828507,77.699756 110.563278,78.9940064 109.001048,78.9940064 C107.438818,78.9940064 106.172105,77.7012733 106.172105,76.1050816 C106.172105,74.5088899 107.437333,73.2161567 108.999563,73.2146395 C110.561793,73.2146395 111.828507,74.5073726 111.828507,76.1035643" id="Fill-72" stroke="none" fill="#00324B" fill-rule="evenodd"></path>
                                    <path d="M182.526697,76.0871775 C182.528182,83.5340489 176.620814,89.5728729 169.332386,89.5743905 C162.043959,89.5759075 156.135106,83.5401181 156.13362,76.0932467 C156.130651,68.6463753 162.038019,62.6075513 169.326446,62.6060337 C176.614874,62.6045167 182.525212,68.6403061 182.526697,76.0871775" id="Fill-75" stroke="none" fill="#FFFFFF" fill-rule="evenodd"></path>
                                    <path d="M172.157766,76.0894535 C172.157766,77.6856451 170.892538,78.9798956 169.330307,78.9798956 C167.768077,78.9798956 166.501364,77.6871624 166.501364,76.0909708 C166.501364,74.4947791 167.766592,73.2020459 169.328822,73.2005286 C170.891053,73.2005286 172.157766,74.4932618 172.157766,76.0894535" id="Fill-78" stroke="none" fill="#00324B" fill-rule="evenodd"></path>
                                </g>
                            </g>
                        </g>
                    </g>
                </g>
            </g>
        </g>
    </g>
</svg>