<svg xmlns="http://www.w3.org/2000/svg" viewBox="0 0 1440 320"><path fill="#eaeaea" fill-opacity="1" d="M0,192L30,181.3C60,171,120,149,180,128C240,107,300,85,360,96C420,107,480,149,540,149.3C600,149,660,107,720,112C780,117,840,171,900,197.3C960,224,1020,224,1080,197.3C1140,171,1200,117,1260,112C1320,107,1380,149,1410,170.7L1440,192L1440,0L1410,0C1380,0,1320,0,1260,0C1200,0,1140,0,1080,0C1020,0,960,0,900,0C840,0,780,0,720,0C660,0,600,0,540,0C480,0,420,0,360,0C300,0,240,0,180,0C120,0,60,0,30,0L0,0Z"></path></svg>