<svg xmlns="http://www.w3.org/2000/svg" viewBox="0 0 1440 320"><path fill="#eaeaea" fill-opacity="1" d="M0,192L30,160C60,128,120,64,180,48C240,32,300,64,360,101.3C420,139,480,181,540,176C600,171,660,117,720,106.7C780,96,840,128,900,133.3C960,139,1020,117,1080,117.3C1140,117,1200,139,1260,128C1320,117,1380,75,1410,53.3L1440,32L1440,320L1410,320C1380,320,1320,320,1260,320C1200,320,1140,320,1080,320C1020,320,960,320,900,320C840,320,780,320,720,320C660,320,600,320,540,320C480,320,420,320,360,320C300,320,240,320,180,320C120,320,60,320,30,320L0,320Z"></path></svg>